<mxfile host="app.diagrams.net" agent="Mozilla/5.0 (X11; Linux x86_64; rv:128.0) Gecko/20100101 Firefox/128.0" version="24.7.6">
  <diagram name="Page-1" id="jGpcHOObZS97GvBV0dfr">
    <mxGraphModel dx="2589" dy="2030" grid="1" gridSize="10" guides="1" tooltips="1" connect="1" arrows="1" fold="1" page="1" pageScale="1" pageWidth="850" pageHeight="1100" math="0" shadow="0">
      <root>
        <mxCell id="0" />
        <mxCell id="1" parent="0" />
        <mxCell id="LISKMKXOkjGHTyVoo3IR-11" value="" style="rounded=0;whiteSpace=wrap;html=1;" vertex="1" parent="1">
          <mxGeometry x="-60" y="-60" width="850" height="620" as="geometry" />
        </mxCell>
        <mxCell id="LISKMKXOkjGHTyVoo3IR-40" value="" style="group;verticalAlign=bottom;" vertex="1" connectable="0" parent="1">
          <mxGeometry x="550" y="200" width="190" height="130" as="geometry" />
        </mxCell>
        <mxCell id="LISKMKXOkjGHTyVoo3IR-30" value="" style="shape=cube;whiteSpace=wrap;html=1;boundedLbl=1;backgroundOutline=1;darkOpacity=0.05;darkOpacity2=0.1;" vertex="1" parent="LISKMKXOkjGHTyVoo3IR-40">
          <mxGeometry width="190" height="130" as="geometry" />
        </mxCell>
        <mxCell id="LISKMKXOkjGHTyVoo3IR-39" value="" style="group" vertex="1" connectable="0" parent="LISKMKXOkjGHTyVoo3IR-40">
          <mxGeometry x="30" y="30" width="120" height="70" as="geometry" />
        </mxCell>
        <mxCell id="LISKMKXOkjGHTyVoo3IR-31" value="jellyfin" style="sketch=0;outlineConnect=0;fontColor=#232F3E;gradientColor=none;strokeColor=#232F3E;fillColor=#ffffff;dashed=0;verticalLabelPosition=bottom;verticalAlign=top;align=center;html=1;fontSize=12;fontStyle=0;aspect=fixed;shape=mxgraph.aws4.resourceIcon;resIcon=mxgraph.aws4.container_2;" vertex="1" parent="LISKMKXOkjGHTyVoo3IR-39">
          <mxGeometry x="60" y="10" width="60" height="60" as="geometry" />
        </mxCell>
        <mxCell id="LISKMKXOkjGHTyVoo3IR-32" value="pod" style="text;html=1;align=center;verticalAlign=middle;whiteSpace=wrap;rounded=0;" vertex="1" parent="LISKMKXOkjGHTyVoo3IR-39">
          <mxGeometry width="60" height="30" as="geometry" />
        </mxCell>
        <mxCell id="LISKMKXOkjGHTyVoo3IR-16" value="podman" style="shape=image;verticalLabelPosition=bottom;labelBackgroundColor=default;verticalAlign=top;aspect=fixed;imageAspect=0;image=https://www.justinleegrant.com/assets/img/2021/podman.png;" vertex="1" parent="1">
          <mxGeometry x="620" y="-10" width="100.45" height="100" as="geometry" />
        </mxCell>
        <mxCell id="LISKMKXOkjGHTyVoo3IR-47" value="" style="group" vertex="1" connectable="0" parent="1">
          <mxGeometry x="280" y="40" width="190" height="130" as="geometry" />
        </mxCell>
        <mxCell id="LISKMKXOkjGHTyVoo3IR-33" value="" style="shape=cube;whiteSpace=wrap;html=1;boundedLbl=1;backgroundOutline=1;darkOpacity=0.05;darkOpacity2=0.1;" vertex="1" parent="LISKMKXOkjGHTyVoo3IR-47">
          <mxGeometry width="190" height="130" as="geometry" />
        </mxCell>
        <mxCell id="LISKMKXOkjGHTyVoo3IR-38" value="" style="group" vertex="1" connectable="0" parent="LISKMKXOkjGHTyVoo3IR-47">
          <mxGeometry x="30" y="30" width="120" height="70" as="geometry" />
        </mxCell>
        <mxCell id="LISKMKXOkjGHTyVoo3IR-34" value="*arr stack" style="sketch=0;outlineConnect=0;fontColor=#232F3E;gradientColor=none;strokeColor=#232F3E;fillColor=#ffffff;dashed=0;verticalLabelPosition=bottom;verticalAlign=top;align=center;html=1;fontSize=12;fontStyle=0;aspect=fixed;shape=mxgraph.aws4.resourceIcon;resIcon=mxgraph.aws4.container_2;" vertex="1" parent="LISKMKXOkjGHTyVoo3IR-38">
          <mxGeometry x="60" y="10" width="60" height="60" as="geometry" />
        </mxCell>
        <mxCell id="LISKMKXOkjGHTyVoo3IR-35" value="pod" style="text;html=1;align=center;verticalAlign=middle;whiteSpace=wrap;rounded=0;" vertex="1" parent="LISKMKXOkjGHTyVoo3IR-38">
          <mxGeometry width="60" height="30" as="geometry" />
        </mxCell>
        <mxCell id="LISKMKXOkjGHTyVoo3IR-48" style="rounded=0;orthogonalLoop=1;jettySize=auto;html=1;endArrow=none;endFill=0;dashed=1;dashPattern=12 12;shape=link;" edge="1" parent="1" source="LISKMKXOkjGHTyVoo3IR-33" target="LISKMKXOkjGHTyVoo3IR-65">
          <mxGeometry relative="1" as="geometry" />
        </mxCell>
        <mxCell id="LISKMKXOkjGHTyVoo3IR-49" style="rounded=0;orthogonalLoop=1;jettySize=auto;html=1;dashed=1;dashPattern=12 12;endArrow=none;endFill=0;shape=link;exitX=1.008;exitY=0.625;exitDx=0;exitDy=0;exitPerimeter=0;entryX=0.005;entryY=0.49;entryDx=0;entryDy=0;entryPerimeter=0;" edge="1" parent="1" source="LISKMKXOkjGHTyVoo3IR-65" target="LISKMKXOkjGHTyVoo3IR-30">
          <mxGeometry relative="1" as="geometry" />
        </mxCell>
        <mxCell id="LISKMKXOkjGHTyVoo3IR-43" value="" style="group" vertex="1" connectable="0" parent="1">
          <mxGeometry x="270" y="370" width="250" height="155" as="geometry" />
        </mxCell>
        <mxCell id="LISKMKXOkjGHTyVoo3IR-12" value="" style="shape=cube;whiteSpace=wrap;html=1;boundedLbl=1;backgroundOutline=1;darkOpacity=0.05;darkOpacity2=0.1;" vertex="1" parent="LISKMKXOkjGHTyVoo3IR-43">
          <mxGeometry width="250" height="155" as="geometry" />
        </mxCell>
        <mxCell id="LISKMKXOkjGHTyVoo3IR-1" value="gluetun" style="sketch=0;outlineConnect=0;fontColor=#232F3E;gradientColor=none;strokeColor=#232F3E;fillColor=#ffffff;dashed=0;verticalLabelPosition=bottom;verticalAlign=top;align=center;html=1;fontSize=12;fontStyle=0;aspect=fixed;shape=mxgraph.aws4.resourceIcon;resIcon=mxgraph.aws4.container_2;" vertex="1" parent="LISKMKXOkjGHTyVoo3IR-43">
          <mxGeometry x="75" y="50.14705882352941" width="50" height="50" as="geometry" />
        </mxCell>
        <mxCell id="LISKMKXOkjGHTyVoo3IR-2" value="qbittorrent" style="sketch=0;outlineConnect=0;fontColor=#232F3E;gradientColor=none;strokeColor=#232F3E;fillColor=#ffffff;dashed=0;verticalLabelPosition=bottom;verticalAlign=top;align=center;html=1;fontSize=12;fontStyle=0;aspect=fixed;shape=mxgraph.aws4.resourceIcon;resIcon=mxgraph.aws4.container_2;" vertex="1" parent="LISKMKXOkjGHTyVoo3IR-43">
          <mxGeometry x="141.66666666666669" y="50.14705882352941" width="50" height="50" as="geometry" />
        </mxCell>
        <mxCell id="LISKMKXOkjGHTyVoo3IR-6" value="pod" style="text;html=1;align=center;verticalAlign=middle;whiteSpace=wrap;rounded=0;" vertex="1" parent="LISKMKXOkjGHTyVoo3IR-43">
          <mxGeometry x="25" y="27.352941176470587" width="50" height="27.352941176470587" as="geometry" />
        </mxCell>
        <mxCell id="LISKMKXOkjGHTyVoo3IR-92" value="" style="edgeStyle=none;shape=link;rounded=0;orthogonalLoop=1;jettySize=auto;html=1;dashed=1;dashPattern=12 12;" edge="1" parent="1" source="LISKMKXOkjGHTyVoo3IR-51" target="LISKMKXOkjGHTyVoo3IR-79">
          <mxGeometry relative="1" as="geometry" />
        </mxCell>
        <mxCell id="LISKMKXOkjGHTyVoo3IR-56" value="" style="group" vertex="1" connectable="0" parent="1">
          <mxGeometry x="20" y="200" width="190" height="130" as="geometry" />
        </mxCell>
        <mxCell id="LISKMKXOkjGHTyVoo3IR-57" value="" style="shape=cube;whiteSpace=wrap;html=1;boundedLbl=1;backgroundOutline=1;darkOpacity=0.05;darkOpacity2=0.1;" vertex="1" parent="LISKMKXOkjGHTyVoo3IR-56">
          <mxGeometry width="190" height="130" as="geometry" />
        </mxCell>
        <mxCell id="LISKMKXOkjGHTyVoo3IR-58" value="" style="group" vertex="1" connectable="0" parent="LISKMKXOkjGHTyVoo3IR-56">
          <mxGeometry x="30" y="30" width="120" height="70" as="geometry" />
        </mxCell>
        <mxCell id="LISKMKXOkjGHTyVoo3IR-60" value="pod" style="text;html=1;align=center;verticalAlign=middle;whiteSpace=wrap;rounded=0;" vertex="1" parent="LISKMKXOkjGHTyVoo3IR-58">
          <mxGeometry width="60" height="30" as="geometry" />
        </mxCell>
        <mxCell id="LISKMKXOkjGHTyVoo3IR-59" value="&lt;div&gt;caddy&lt;br&gt;&lt;/div&gt;&lt;div&gt;(reverse proxy)&lt;/div&gt;" style="sketch=0;outlineConnect=0;fontColor=#232F3E;gradientColor=none;strokeColor=#232F3E;fillColor=#ffffff;dashed=0;verticalLabelPosition=bottom;verticalAlign=top;align=center;html=1;fontSize=12;fontStyle=0;aspect=fixed;shape=mxgraph.aws4.resourceIcon;resIcon=mxgraph.aws4.container_2;" vertex="1" parent="LISKMKXOkjGHTyVoo3IR-56">
          <mxGeometry x="100" y="30" width="60" height="60" as="geometry" />
        </mxCell>
        <mxCell id="LISKMKXOkjGHTyVoo3IR-62" value="&lt;div style=&quot;&quot;&gt;old laptop&amp;nbsp;&lt;/div&gt;&lt;div style=&quot;&quot;&gt;runnning debian&lt;/div&gt;" style="sketch=0;pointerEvents=1;shadow=0;dashed=0;html=1;strokeColor=none;fillColor=#505050;labelPosition=center;verticalLabelPosition=bottom;verticalAlign=top;outlineConnect=0;align=center;shape=mxgraph.office.devices.laptop;" vertex="1" parent="1">
          <mxGeometry x="30" y="-10" width="110" height="80" as="geometry" />
        </mxCell>
        <mxCell id="LISKMKXOkjGHTyVoo3IR-69" style="rounded=0;orthogonalLoop=1;jettySize=auto;html=1;endArrow=none;endFill=0;dashed=1;dashPattern=12 12;shape=link;" edge="1" parent="1" source="LISKMKXOkjGHTyVoo3IR-65">
          <mxGeometry relative="1" as="geometry">
            <mxPoint x="380" y="370" as="targetPoint" />
          </mxGeometry>
        </mxCell>
        <mxCell id="LISKMKXOkjGHTyVoo3IR-71" style="edgeStyle=orthogonalEdgeStyle;rounded=0;orthogonalLoop=1;jettySize=auto;html=1;entryX=0.008;entryY=0.667;entryDx=0;entryDy=0;entryPerimeter=0;shape=link;dashed=1;dashPattern=12 12;" edge="1" parent="1" source="LISKMKXOkjGHTyVoo3IR-57" target="LISKMKXOkjGHTyVoo3IR-65">
          <mxGeometry relative="1" as="geometry" />
        </mxCell>
        <mxCell id="LISKMKXOkjGHTyVoo3IR-86" style="edgeStyle=none;shape=link;rounded=0;orthogonalLoop=1;jettySize=auto;html=1;exitX=0.839;exitY=0.5;exitDx=0;exitDy=0;exitPerimeter=0;dashed=1;dashPattern=12 12;" edge="1" parent="1" source="LISKMKXOkjGHTyVoo3IR-79" target="LISKMKXOkjGHTyVoo3IR-57">
          <mxGeometry relative="1" as="geometry" />
        </mxCell>
        <mxCell id="LISKMKXOkjGHTyVoo3IR-84" value="" style="group" vertex="1" connectable="0" parent="1">
          <mxGeometry x="-310" y="206.87" width="180" height="116.25" as="geometry" />
        </mxCell>
        <mxCell id="LISKMKXOkjGHTyVoo3IR-87" value="" style="group" vertex="1" connectable="0" parent="LISKMKXOkjGHTyVoo3IR-84">
          <mxGeometry width="180" height="116.25" as="geometry" />
        </mxCell>
        <mxCell id="LISKMKXOkjGHTyVoo3IR-79" value="tailscale" style="html=1;verticalLabelPosition=bottom;align=center;labelBackgroundColor=#ffffff;verticalAlign=top;strokeWidth=2;shadow=0;dashed=0;shape=mxgraph.ios7.icons.cloud;" vertex="1" parent="LISKMKXOkjGHTyVoo3IR-87">
          <mxGeometry width="180" height="116.25" as="geometry" />
        </mxCell>
        <mxCell id="LISKMKXOkjGHTyVoo3IR-78" value="" style="shape=image;verticalLabelPosition=bottom;labelBackgroundColor=default;verticalAlign=top;aspect=fixed;imageAspect=0;image=data:image/png,iVBORw0KGgoAAAANSUhEUgAAANgAAADYCAYAAACJIC3tAAAAAXNSR0IArs4c6QAAAARnQU1BAACxjwv8YQUAAAAJcEhZcwAADsMAAA7DAcdvqGQAACqtSURBVHhe7X0JeBzVlW6GTDKDwbZkW5YltdTqru6WLNtaLONVBsuWLNnybsu25H3fsFnzHhAIJGHe5GXySPImgYQQ9kwCTIAJ4DBhyUzCkoQdDGYLO4TVeGG1sc6c/9Qtuy3KUm/VLVrn/77/ay1dVbfOPf89596699aXFAqFQqFQKBQKhUKhUCgUCoVCoVAoFAqFQqFQKBQKhUKhUCgUCoVCoVAoFAqFQqFQKBQKhUKhUCgUCoVCoVAoFAqFQqFQKBQKhUKhUCgUCoWi9+HvzKciCxBrZeJ7X/H5fMcWFBT0KSsr6xsMBvsXFhYOLCiIDAoEAvnhcLjI57NpWcOKI5FIgL9X2puIew4GK0qKi8sKQdgCtoGNQqFQnt/vz+Hv9c3LqzgetqyoqPgq2/XLYmFFdiM/v/I4doaIZVnjA4HQjGAwvCEYDJ0XCkW+x/xJKFT2S8uK3Mo/38Gf94dC4QeZOywr/DT//lf+fJ2PAV/ln9/izz29kZYVepc/Xw0GI6/x5+tsixdsG4mdHuG/38+f/8W22842vT4cLv95OFx2ETdQ3+Lvb2POZTGexA3YcJ+vYoCpHsUXDVyJ/UpLy7kiy7Zx5V/OFf57Fs9zXPl7+LODK5+44g3Lo34+THzHZkQZA91sCEYisK9tY/Pdj5gvc53cx7yO6+hctvPMcLiqyFSfoicCKUogEG5gEf2QW9rHLKsMYjqisk0FE4vOYcdRGP0dZXw8qj0d+0fXiamXD/n/L7LgfsVRrg0pualWQPttmURhYflArpQN3ArexZV0IKrSOle8soeShcV1ZgvPiPAJ/vs5LLSgqWZFulFbW/sVroilXDkPqKiyi6hHpJb8yWl9+Bzusw021a5IBwKBwGiOWDdyBRxUYWUvnYaT0/6HWWRzTfUrvINErVM5nXgzEoHh3StGmV20B5vCB7hffTEeERhnUKQSlmUVc0v2i8OtmntlKLOTyFIwGokugd9vTTJuoUgFSkvDVSyuBzUdVJrG9Z1AoKzduIciQcjwrN8faWZRvYjWq7Oxlb2TGHFkn/iAfz5DPEWRGPz+8FzOu98xrdah5ylK5eGuQujb7Cr6rCxehEKhqdxKvWvEpVR+jna/rKwjELDONm6jiAWWZY0MhcpeUHEpuyNExjwQDIZXGPdRdAWMFrLBHjJ9Lk0Lld0SDTH7zHuWFWk2bqRwx0l/HwqFr8NTfDdDKpVHo8l2nsGyGuNMis6wrLKtmhYqE2SHHcnC15u1aIpo4FkXh/m3VGDKRIn+GPvPQU4Vtxi30tFFIBQK/QN3Um824tJ+lzJhQmTMl4PBoWHjXr0a0sIEAqF2O7zrLA1l8jR9+IvFw3o7/P6qHM6b79OBDWWqaBrqfdynH2/crPeCDbHcni2t0UuZOpoG+1p2sWNsT+uFyMvLO56N8F86sKFMNY1PveP3h6uNu/W+AY9QKNTIRjgQbRilMlWEyLB7mHG33gdOC/9Vo5fSK5qBs/uwIZJxud6DYLC2fzAY3qECU3pF9Os5gn2K/TCN2/UKSC5sWWWT2AB7dXBD6SXRgDO/Jp7Xm4BNQfnG9aGy0kua6VORX7LL9a5BDr75yzU9VHpNkybu7FX9sMrKyuP4xn/fEwUWYoa5UlAxDp3f3b6fDkaXoSeUB+yJZXKjKdN74XC4yrhf9iMYDIb5xp/taQILBEPkLwlQYVEJFfpKyFdcSj7+LCwqppKSUgoELNfjvKA4BpcH1/TxtVEmX7FfyoSfi3x+KuX/cevserxXxPX8pUGxj10mthGXCz8XOzZKc5m6ohHYp5YVWWjcL/uBUZ1QKNxDBjgiVMoOU8yOAsGfMGo0TamfTNObmqll2jRqaZ5OUxsaaezosVRWNpRK/AHyM93PlTxhE25/zHWCNHzYCJo4oY6aGqdKWVqmTadpXLZJJ02i6uoacegSbhTQOHhlT5xXbMQCgr1G1dbS5En1xkZcJi4Xyjdu7DgaOnSYNFKOjXpCHdsNeeR0437ZD3ag6Wz4gz3B+IgO5eUV1MQiWrlkKW1et5a2btxI2zZtOoJb1q2j1cuW0Qx2qOHDKiWioTVP5T04jgxhQegL5syl9atW0cnr13+uPFs3bKANa9ZQ+8KFdGLdRAry8V4Jv5gFE46US8OzrL2dNq11t9FmLufaFStp9oxZIn4RPjcAma5ne9pU6LvG/bIffNPrMf+wsyHSSVQ8HLlu/ARavXwZnQKnZafZwk6ymcXUmfi741QbVq+mhslTJEWDINzOnwgRtcrKh9Lslhksqg1SppNZSEcrE/63jcuEcrUvXEQ1NSPlHG7nToRoQBC1Rp8whla0L6FTNm/u1kYoE8oNETZzVEOfFillJkVmtp+4xrhf9oMr7huZ7H9BXCDSGnFStL4uDnM0bt1oO/bcWbMpxPeRrAPhWESJESMqaTlHiFM3c8Rkgbld25Xs2HB+CH/CuPEmlXO/Vqx0+lqIWojquN+jCcuNIjS+j9a58yS1TmVDFC/ha5w13d5rVjqzQ/2Lme2ckedgSKWQEkJYcAQ3B+mOcDY49TwWGcQaDHC66HKtWIhIOoz7WiuXLo1b7NFEdNnMkQN9IaRn6C+5XS8Wok9az/08nBM2QkRyu2ZXhI1O5ftZvGABO3lE7OR2LY9pnoWV3VNVVdUrhuqPYYH9NCO7RoXsPtcETgvhNPG0yG7E8RDE1IYG6ZO5XrMbijj5c9H8+SJYt+vEQwhi7cpVVDmiSoTrds3uiHsZM3oMn28tbUmwAYom7mtmS4s0bLhXt2t6SQiMBf6g3+8fYnwwq/EVbll/aVLEtAoMKU/50GHc51put/YuzhAvIdSN3LqjUx/vIIOdGiJS1MedgnVFOPSCOXPIH4hfYAFEYi4XUlX0pdzOHy8xSIN7g2hxvzi/27W9ot3fL9tZUtILXujHrcg/ssB+k3aBmQ47+l3oG7g5QqJEFEOqaPfFXK59FOL76J+sWrYsZYIHbaGupxNGnSDPqWJ1aBE8f3/SiSdJeTBy6nb+RAgbLW5tlb5dulNFO0WMvGRZ1jDjhtmL/Pz849gJ7063wPCcKMwtGYbiU+nMIKLYulWcllXGnpahv1biL6W68XUpLw+I6DOrZQZfI/YoZkevsAz9I6K6nTdRItWE8GtralM60hkL0XAw34hafJm9GDiwrC/f9D3pFhjStxNqT5BBgJM3pCYViyZaaLT8mGERa8RAmebNnp3UwMbRCNEiMiJCxpq6QvAjhlfKgAYeE7idNxlKf3VKY9ypdLI09bGrtDQ8xrhh9iIYDPYPBrE1tggsLcQ8OUzlaaif4km0ABEx8BA6VudxZl4sa2vzpEz2yN8a+4FvjGVC2cePHS/HYujf7bzJEFERgzkyIMT371YGL2gEto99r864YfaioKBgkGWFnkrng2YYGJGlpXmaJ9ECxHkXsvOgjwG6lSOa6IcMLa+gdStXyqwMt3MmQ6RjeF43dszYmEc4IcTGyQ0i+C3r3c+bDHHepYvbqLQ0vXMojcA+ZoFNNm6YvSgoiLDAwk+bm04LcS109jFvziuBwXmWLFok14ulE49ZIJhniIfDEjFczpkMIbBtmzbKTJWYBcbfw/xCL22EiI2h+gwIbD/3MRuNG2YvuBUZzB3p59ItMESw6R5HMKQ/mKiLwQK3ckQTIqyoGGbPNfRKYOzQhx86u5cjmvie/QDemzTaERjS4wwI7CB3TaYZN8xe+HzhIjbua+kUmPTBfCXUOKUh5aNjDp1ROwy9Q2Ru5YgmBIZ+KOb4wfHczpkMIbBN/DlyZOyjduiDYeY+BI/j3c6bDGH7ttZWuzxpFpjtb5E5xg2zF7bAwq+nU2D2kHhA+iOoaC+cBwLDEo4iFnJs9xZihw7KXD0voir6X2tWrJB+XqzzABHBqiqrZRTRE4FxZJzW1JSRUcReI7Di4rJCDtWvplNgYCBoyZC1PYsjtSmZRAt2ypGYzc79mFjvDaKfdOIkFmdqH+qCeJg+f/YcEVes6Ri+i6jqxcgmbITIiGU4sfYJU8Uogc02bpi9sKxhxXzTb6ZbYGAxOzQWUXoxk2PhvPkycOF23aMRLTkWKOIhdSr7YXBmjEyO5/4XZmbEY2t8H0txUjVNyiFsBOGGMjTpFw1HKBSab9wwe4E3EHKKuCcTAkPEGD68UgYWUtVCS8vMHH3CaBGw23W7IsrUPLUppQ4NZ25rXcjnj38wAVGsAvM1Uzh9SwTP50L/DtsLZKLujcCWGDfMXpSVlZVmSmAg0hOscYITouLdHCIeYmLtnBkzyV8aiNuZYQNEvUhkaMom18KRMfl4ZE1tQn0dlAlRbOKEiXKuVNkIfU3YB8t63K7rNfHcFa/JMm6Yvci0wFDJcOq5M2dJxSczY+FUPr5t4UKpvHjTQ4fi0CyEkdU1kiomM+ABQaB/iXVcaEgSXRoCG0GcLc3NYqNkRIbjVy5ZYu/VwdEx0TVzyVIFlkYiDcL1sSIZDh1P/2fTWjvlOXXLZmpftIjTqeHiOG7XiYeIGrUjR3H6ujKhSIYhcNxH/aR6STvjjaadiX5SMBCW6V+2cONLF2EjiAuRuaqyKqH0OZVUgaWRuDZEhpHF5qlT2SHWxiQ0e/MZO22azWlhJFwuQ+2puhcZJh9RTe3cf0J5IJquogf+B8eHI2NfEQxqYMJusuJyKNvYsTDw+GHj6tUx2QhlcsQ+d/ZsKh9akZE1YJ2pAkszcX04EFKpGk7P5s2eI9OWxLEN4bzRv29cs4YWLVhAY8eMk63JMKcu1fcBkSGNglMva2sXp0VEg7CdSIKyQFQYKVy9bDlNm9okKVgq9uLoTIgV58V+IXiQLnMnIWpjkyPKxMTjCjxMHj9ugjRiTrbgdu50UgWWQcKpsW6qurJalpzMmNYiw+6YW4j9JGbNmCEOX1M9UhwG37dimK2RKJGeFctoG/ZpPEFmoMydNYvL0iprtbCdW3NTkzgxHiSjkfDakZEGI/XEcpaJdRNl4jQGLlAeLKRERMfwPtJcW5TJp6mppAosg3TKgnQIMzHwiQECe3Uy0kmLfD6/OBiGvjsf7wURxZzoUcRii352dOjvZnffdNgS1wAhNNiocz8P5RAbofGJOq6nUAXWA+g4EYSF9BFOzZVyxP86H+M1netC8HZ5Di/1yER5QMztxCfKIeVh4vdM2SgWqsCUSg+pAlMqPaQKTKn0kCowpdJDqsCUSg+pAlMqPaQKTKn0kCqwHkIu21H+nrlZCW7XTvfOTNE82nUzaaPuqALLMPF6HSzKc16zU1Lil5kJxfzpTEOyF+2lZz9H53pyTSsik4oxfQrvjJYl99wQRKQ86Xu4G10mZx6n2Kj48FStSMT+v9vxmaQKLANEi+s4jM9XTAMH5dHgwYPZmf3iKNXVtVRRMZQrppSGDBlC/fr1p8JCnzg23m/mVYvtvLAub3A+5eQMoKKiIv67Jbv0jho1msuL5S1c3gEDacDAPP65hMr5GLdzJUvcI+oKZYLAc3NzKS8vj8VVQmWRiNgIE42DgQDbplDKW1iI8tqvbu0pUU0Flmba4ioXRx7AjlpVVUXbTt5Kt99+O+3Y8QS99+7btG/vHnp/17v03LPP0O9/fzdd+O1v0fjx46hf374suEJxulQ7EMQ+cOAg5kCaMaOFfnbppXTffffSKy+/RHv3vE8f7NtDb735Bj388EN0042/ptWrVnLj4KP+/XPl+FTbVaIVi6dv334spHI6ectmuvWWW+iJxx+jd9+xbbRn9y564a/P0z33/IHOO/d8mjTpJBo0aLA0WrCR23nTTRVYmonWdcCAQTKx99vf+ia9zA4cC9599x364fcvovLycm7JB8t53M4fLx175OYOoKapTXTbLb+hTz/52Fy1K3TQQw/+hYW2SsqD+0lFioa+KO6tqMgn0erMM86g559/1lyza+zds5uuvfpqFuRQOvbYPubeMlvfKrA0Eo6DKFFXV0d/+O//Nm7B6DhAdHA/81Pz6RC/M/F/gyef3EEt06eLIJJNhWAL7FUxaNAgOvus/y0OaqOjUxk6l4k/6aD9zY4Ouubqq/h8QRZFcdJlwvGI0hUskt9uv02uIej47MjrH1GeI2307DPP0KqVy7khGyD3mMk6V4GlgXA4pCyDuK/V3NxEL730onEFx2lipHGit99+m2bPmiWRMJlUCLbI4zJd9P++J+cVuF23KxrcdefvKBQOSX8p0UiG4woKCiUCPfDAX8yZWcifdRZVN2R8wlH4zDNPF5FhAMnteumgCiwNFHHl5ctLF9CvErg5RqxkvPP2WzS1sZHy8wsScugwR4oBuQPpnLPPkvPZUStORxYienBDwbjx1zdQwZAC6V+6XbMrol78/lK+lxDde+89cj7368VIxv5PP6G2tjY67vj+nvRbY6EKzGPieljnlZOTS7/8t19Ixbs6RLxkPPLQgyywfHbo+BYblpdXyGBAQ0MD7X5/l5yrI94o0ZmIxoyvf/3rdFwfDExUxOzQToTvc3xf+sklF8t56KCTNidI3A/j6ad3SkTE449U9BHjpQrMY6JSMQjQ3t5OBz+DE0b3b5KgiRpf+9qZMoQdawuN+0eEwWjhLf9xs5zD9fxx03bo1155SUZGh3AkQ3/KrQzRdMSFSDxt2nTat28vn4VtlKzgQZNSX3Lxj/l+82IqT6qpAvOQfD1x6EGDBtIdd9whle3qCAnRduidTz0pD1yRXlmy1UDXFMEPHkLTpzXTJx9/xGdIkeBB49B4rNCvX05caRmeY/3immvkeNdzJ0rGm2/+jWpqqqmwoCjtUUwF5iFxLYysjR0zRp5rCRLq5xyFLI4OTqVWLF9O/fv3l9SvS4fm/8HB+rMzX/7zy+zydLicNxkyHubUFVvTIS3rzt4oTwE7/ogRI+j1V1+R413PmyhNpN+8aaMMCqWz/kEVmEeEo8Ph8SD27EMDCVzZbk6QKCEOxvf+5buU0z+H+xrDXMvi0N5QJyIzH/50//1ybEoFDzJ2736f6urGU8GQwm4jBv4/hNPDefPmyLF8ks+fM1ky/uOmmyRVx74eyCzcyuIFVWAeEQIbVjGccnNy6bLLLpVKdq38ZMn4zc03yfA25jJ292BVdq4KBugV7isJUi4wTjmZs2fbjxHgYG7lcAiB5eQOpG+ce54UJ+WNkEmlH3/sUb53TEVL7zQqFZhHRCVWsMBycnLoqquulEp2d4AkyXj80Ue4EgMy+6G7iIFJu5hbuG+veajsds5kaPphq1evodzc7lMylPf44/vSZZd61QjZAnuS+6qBUjwGSE/9O1SBecQjBHblFVLJ7g6QJBmPP/aITHqNTWB+GlU7hgX2vhzres5kaAS2ccMmyo2hz4Py9uvXj6695io5zvWcSdEW2FNP7VCBeYlMpYgDcnPpyst/LpXs7gBJknH3nXdQUSHm7nU/qCBzBkMhevNvr8uxrudMhmZQoXXBfE79MFWpuxQxwv3UHPq/3/lnOU4E6nbehGki2JNPsKOXpn2oXgXmESWCDR0mzvPP/+efpJJT7zxMxiUX/yimaVPOYslin48efeRhOTb1fTCiDz/8gOrrJ1F+/pBuIyr+j2dgS9rb5djU98GYjLvvutN+NsfXYz9wLYsXVIF5SMd5Wlqm0ycff8jVnMJnTqCZcLtt68nUT5Z1DBMBuZUFxP9QJiyT+fcbrpdjXc+bDBlYQjK0Ypg8oohFYBhtxHIcLIsRuJ03UZqU9Rvnncv3nZf294SpwDyk4+wFQ4bQIw97EDEYf3v9NaqpGSkz0LtzZhDfwayGNatXy/F8os+fN1EaZ770p5eY/lf35cGoZyCAmSV5tP3WW+V413MnSm7UPvroQ5pYV0eDB3cfUVNNFZjHREoC5znn7LNt50llCsS48sor+fyDun/IbIgKx0pkrEx+9JGH5Byu506EjL17dtGUyfUSJcvLu5/pj3QNZc/NHUjLly2jg59BpCkUPeOmm26UTMLt+l5TBeYxcT3sa2EFg/TAX/4sFe7qCPGSgRXGtbWjJBWL576wzL9v3xxau2YtdXQgzWQmO/fPRK+f/exS6t8vN+7nTfh+v359D68Bc7tGPDSTfffsfp/qJ9n9we76qF5QBZYGooXuy07X3Nx8aFFjUrPX7TNw32uLLLyMd+jZfkVRmAbnDZbFkvbpkhyAYex44jGqGFrBgi+JS/AgUjcMQpx04kR64w17hDM5G+GBN9EF519AX/1qn4yIC1SBpYnYhwNiOOO00+jAfjgAw80xuiPQ0UHnf+M8Iy57hye3a3ZFVDyG9YMcWe+600xEllXD8Ti1+S7jtVdfoXpODREpEh0Kx3FId2fNnEm73ntPzmvPlYyzTEZc2D5gCJfH2XnK7ZpeUwWWJiJq4Nrom2ADF8zwthHjyKJZb4X9Ms499+uyvsztOvEQ4rTTyxDd9Osb5Pw2YoxmBpiGhH4XVmzHM4PejRAZGo5Zs2bSCy/81VyB4Xb9zjQ2+uzAfrr4R//K91YkqwzSPbARTRVYmonr9z2+L9XU1NB27m90HLSdwgaLDVEE6Zr0aeyW2MGf/3Q/LWlvY5EOIEvuI7l7gRDwQnXsM1hYUEBnnXUWvfTiC+ZqDrh/dqg80WUl2WkKs/KHVQyjwYPzE45c0UTqCpEikuE1ttdf/yvavx9RKRpHt9GTOx6n1atWy1Z3jriSEXyyVIFlgCgDUilM0F2+fDlddeXV9Nprr3J0+sS4iQ2MqCHS3fGft9Mp27ZKi4ypV6lukXE+TBTGwEdlZSV984Lz5UH0rl0mTYvChx/so+eee4Yuu/Qn1NgwRZbJyJ6NKRBXNCEy2Aj3O2/eXPrFtdfQKy+/TB9/hDVsh3GQGyjsuHXnHb+j008/TVYvQ5wQVc+oaxVYRug4JIan+/UbQCNrquUF422LF9GGDRtlyBoPqEePPoE7/0MkbQoGraRTsK6IwRgMNGCxJK6B3a/mzplNa9eskTJh+hNSQWwHgJkjSHfLysrFkVNdJpwPgzd4zIHrIGpjpfTUxgZavKiVy7SOli1dRjNaWuQhNVJdpM2YCpapAQ03qsAyTDg1dvPFRF2sV8L6McxC78/Ogj4NdqvFnhvl5VjrlXpHjibODeHDQbE7FGZYQEhoBPDgGJ+D8wtkY084jpdid4jpXbAR9jWBjZCKorHJyRnIthpAgwbmyYJNND7297y1UbxUgfUQIk0DUb7DPPy3dDsNrmlfO7pMdnlAt2O8Ivpl+HSu7ZTJ+dn+7FnCcojyqcCUSo+oAlMqPaQKTKn0kCowpdJDqsCUSg+pAlMqPaQKTKn0kCqwHkQ8TP3c3zr9ni46z5yiCdtF/+x2nPJIqsAyTJSHK4BK/AHylwSoRFgqn5j2g8/SgCXf81pseFCL2RkQOmaQYNoUpilhviEmz4KYH4i5h/bskopDx3U+Vypp28gSGx22i20j+ZsfL0PHpqv2dzsfn0mqwDJEcZqgRcV4cz//PmJEFY0fO54aJzdQS3MzTW1opLoJdVRVWS0RA99zhNb5XKkgzosl/hBV3779qaa6mubOmUPnnnM2XXnF5XTVFVfQd7/zHVq2dAlNrJtAeXn5Mo3KiWheiAxlwnnxcougFaLhwytp3Jhx1DB5Ck1nGzU1TqUT606k6qqRMsULNsLq8Z5Sx6AKLENEC4zJrCdNPInaWltp09q1dPKGDbR140batmmTfG7l3zevW0fL29qpoX6KRAxxthQ7MwSCqIBINXnyZLry8ivotVdfNfPVPw/Msr/9t9tp3br1lDswT0SZ6gm2iNZ24xOhiRMm0qL582nDmjWftxFzy/r1tHLpUmqeOlX2osRxmJuYqfQ6miqwNNJpkSEurHVaunjxIWeBk2wGWVAO8Tdwm/nO6mXLuMWeKGkRUia3Pls8RFkikaGS8uHNkpdcfDHtOfSeZgDrrpjOgkZZg3V4TRj28/jt9u00adKJskQEUSRV4odIaqpHUvvCRYdsBHFtgV2ibASbwUb4zimbNtK6lStpSv1kifaZXMnsUAWWRsL5/Fzp9SdOkogFp4kWVHeEE528cQNNm9okLy9H3y0ZkSFyOS8cv+/ePxrZMKJXCXdFsy/j66+9Ksv8Mcs9+UjGNuI0D+kxItYpCdgIdp09Y6aIC0Jzv056qAJLI9EqT6mvFyeQiOXiIN0Rx52yeTPNnN4iLXSiEQPRBmuosEDxL3/+kwjFfm1rPPtfGDKQNuKNKk4kc7tmd5S0sNhPE8ZNOJQKutmgW8JGWzbTAu5DohHKpMhUYGkgrom0cMzoseIAcJ7POUUclLSRW+nJk+rJh/6GyzW7orTspQEqKCig7bclv9mn7P7EQL8Nix/RJ0N0dLv20Sg24tR35Mha2rB6deLiMnRs1Nw4Vc7rds10sNcILBKJBDIlMKSF4UgZrViyJO608Gg8ecNGccSqqmo5v9t1j0aMFvbpcxydsm0by8LsA+IinLjJuOnGG2Ubb6x0drv20eg0Euhzpc5G3JBxKl47cpRkD5moezQ0oVBoiXHD7EUwWFHCN/xOJoxsp4aTxXGO6KAnSaSKc2bOkudBsfbF0KL6iks4jYvQC88/J6JwFUsi5D7Z/k8/pgXz50l/zHlO1h1RJ7BR3fgJh0ZOU0XYaMHcefKcLFUDMPHQjuSRhcYNsxfFxWWFbODX0i0wp1KXtbUnnfZ0JlrotStW0ohhI6Q/1vnabkSFw/m3sOPZSFH0As0rbbFBjex85XJ9N2JEFHZatKA1ZdHLIWyEAaXqqpq0p4rwNdvfrNnGDbMXPl+4iFPE19MtMKRvtdyvQCUnOrDRFSFaPGzFmyu7uzc4MZ69wflvvfUWEUNCgxpdkYHdn0YMHy6zQbrriyHy+jl6DeNGYuMab2wE0eLhNJ71uZXBKx4WWGSOccPsRSYEhmsVseNLepji6OUQztPSPI1b59giGKKFv6SEdjzxuIjBC4Fha7XGxgaZ7RHLYAemiI0dM07SQ68EtmDu3AxGsF4gsJKSkgK+6ZfSKTC80R4Cm940Le7nObESztM6bz5HJ4in+z4GRjMjkTC98/abIgZXkSRD8yB68aKFsusT+nxu5Ygm+pCIMKlOoR3ivEsXt6W9H2Z87WAwGJxu3DB7MWRIKI9v9ulYKjxVhIF9xaXUMm1ayvsWDuE8SxYt4uvZE2LdyhFNvKO5prrW85egY9/CnBhegg5C9NObmthG3gkMfWDnDZ9uZfCC5t4PcMPXaNwwexGJRAbxze5MZwTDtYqK/ZLCeSmwxa0L5HqxCAwPcvEmzD27d4kQXEWSDI3Ali5dJhEslhQRAsPzKq8FFuAonwGB7Q+FeoHA/H5/DqdRD8dS4akiUsTComKZGe+VwHBeTAuKdRQR38PLwJ8/NESf6j5YB3322QGaNbNFZnXEkjFg8GFi3UTug22kLes86IOxwNoWLpRU1Eq/wD4IBAITjRtmL7gV6cdp1J/TKTAYGLPfsQxly3p7doGbAyRD9O2mTJosfb3uojP6afjOkPx8uvePf/BIYETv73qXxo0dI/McY4tgAU5ba8Q+Xg1yIE2HkOOd9ZIMYWvmrnA4PMa4YfYiPz//uFAofLep8I7OxvCKSNvwwHXtihUy+8LNARKlPOPhz1G19kwFt+t3Ju5/AEeWf7rwQhGDpHRuQkmUjN/edhsNHlwg6Vh3ogcxVxDzF1csaU/5aOuWDevF7hilzNAo4luWVV5r3DB74fP5jmWBbU+3wCyOGmihZ8+cyS3pZlcnSJToW7Rz6oPIFGvfAvePvdzxYoe9e/eIIFyFkgjN641OO+00Ou74ftLXi6VcztqvpsbUp9Jb+Xwrlyzl+y6POY1OFWFrFtgrwWBwuHHD7EVFRcVXOUW8Ie0CYyI1qeYUaKNZMOjmCPESqRQENn7ceElDY4kU0cQzqmuvSdHrYx0ynt75pMx1RLSItUz4Hpx/WMUIWiORPnXTpSBYTIqWuYgu1/aSuC/mM5ZlhYwbZjWO4Q73z9CS8c2nVWAgKhgjZZgb5+YI8RLnaZ03T9KreEbG8F1ZqlLoo9EnjKaXX35JhJH0S9AZB/Z/SvPnz5N9PBJ580oJNxRYK4eGY3MKBjtgI6wWx7mxPUPn63lNO4KVPVpUFPIZH8xu8A1/36xVSrvA0BfDtCCIIlmR4fjl7e3St8NUrFgn+jqE40MAffv2o1UcMT799GMRiKtwuiUL0yy8vOTiH1OfY/vELSyHOA52wqio2CiJAQ9ErtXLV1DliMq0T5FyCIGFw5H7fL6KAcYFsxt809/KRIoIIl1ARWMZx8L5C8SBnImobg7iRqSFGDXE/hOVlVV22hNnahhNCBMTf8884wz6+KMPRSRxp4sGeOG4/U7k2FPDzsRxSBXxuWD2HBFJIqOKsBHEhbVleMbmdq00sMOOYOG7fL6xxxoXzG7wTW9N50wON9oRJ0KzWlpYYPaiwC3ru+5zwMkwurZ14wZqnTtXBg9kRCzOyOVGlAWTf9vb2ujpp3cauTAOrRFD6hhN/pt5mAzs3r1LXjmLRZZwZtOAJUxbZBZHspBsjYAGCILpTmiOjWBPpIWVI6qkPDif23XSQXRHOCpfz673d7YHZjm40ubD4Jk0Oog0CAIZO2YsLWZnwMNVOAb6HtF0HAbOgw1ysLsSjnVE6nbuRIhzHdunn6wR+/8//AG98frrRj5Hx769e+k3N99MTY0NdPzxfU3kwfZt7teIl3KfbCM8gmidO+/QHibCzjZiIhvAgtbJJ9XL8f7SzKSF0bQFZl1k3C/7EQiEJ1pW5MNMC8y5PlI89Dtqa2pp6pRGTh3n0zKOJJjWg8/FC1ppWlMzjR41Wo7BvEZ834vyo0+GaVTY67C2tpY2cbS8+aYb6fHHHqWdTz1JTzF37HiC7r7rTrrg/PNocn29PEjOz0/9lm3RRJkgNqznaqifTAvnsY0Ww0ZttJTZ1rpQHiKPHT2WIuzQGCjxykbx0vT3zzHul/1RDM8j2PCvJJvGpIpwAieaobUuZpZyaoTZBvjE8zP8DzvX4nteOg2cEnaREcYinwgtb9Bgjky4NtN8FuCF7Pw/pIQ4LpHRwniIe8b5YZ9DNsKseP4fbFIsNgrK/ySKdjo+U0S5mQf45+XG/bIf5eXlAzmC/amnCCyacCLngbHDdM6bi6bdOY/IXEoIDp/yxv+Isy+9/R23Y72mTHXqATbqjkZguy3LGmfcr3eAnfi6niiwnsjOyzsOObX5XXl0QmD8+WIgEMg3rtc7EAyWnasCU3pN42PbW1tbv2xcL+shncxAIDSDb/5j08IolZ4QAmMfu1A8rzfB7C71V41iSq/ozKwJBMpnGLfrXbCsyL+pwJRe0WRHz4bD4SLjcr0LfONtmiIqvaJpvH/MrnaM7XG9DBjZ4Sj2pEYxZaqJhpvJffzQVONuvWOaVGcEAtY3zdIVpTJlRKMdDIZvxwJf42q9ExzFItzS9JhZHcovPu3oFT4QtVV274xeDoLByHkqMGWK2GHPPYzcxq7197aH9XLYU6fCjxmRpX2NmDJ7aPpeey2rrN64lwLgzmgrtzr7YSA3wymVsRDRKxgMfc+4lcJBbW3tV1hcP9VUUZkgnZXLD/j9FUOMW/Xuvldn+P3+IZYVekRTRWW8NJkPp4bWJONOCjdgMSYb671Mbymg/OIQ4uJG+WAgYJ1u3EjRFbg/1s4C+0D7Y8pYaDKe72PPTeNCiu7ABjuTBdahIlN2RbMdwA3cvfhH4zqKWMHp4jftjquITPtkykO000L7eRdnPHnGZXRQI04cEwyGz2VjfqYDH0qHtrhkxPA6n8/XOzYT9RLcUq1go+5WkSkdcYXD4Yui0kKNXMnCsqwmNu4O5NwwspvxldlN0114n33hjNbWL/WaLQDShpKScJBz7mvtFkyH8XsP7f4Wi+tB7pc3GHdQeIQvl5aG14fDkec0mmU/7agV3sc//6CkpLzA+IDCawSDwTAb/cdIGVRo2UXUpUkHP2PeqrMzMggW2iiulMu4It6w0wikjiq2LxBl0MoRlREWItZd3Ia26cPjHoJgsAxCu4Ar5z6umP1RlXWIpkI/V7lKz3mEnaPrxK4nJwOJPBUKhX6EZf7MfzBVq+hJiEQig4LBSB1X2P/i3P1XlhXayZX6jmWVfYLKRDqJCnUE6IgQW1I7ld4Vox2lN9LNJp152KaHbRxtc/4fp37h9/l8LzK38+8Xcp1NY1H1jjdQZhP8fn8Oi66SU8cFXJlnMr8TDIau5s/fcSX/kYX1EP9vJ1fyi8w3+W/v8v/2Mj9l7meiH3CE89hO0rsYJY5DNKk4bARb7WPb7ea/sw0jrzCfZWJlxH38vzvZ5tfx5w8CgfDZnGGs4H7V+EBgOLazdhtu1+daX3TgISX33/qXlJQUcMtpMSu40keyA4zmv09gTgkEQo14/lZaas32+yNz+HNWIFA2n7+7hP/X3puIe2ZBLYQNYAuQ/z6D2cgN2BRkDWyrcSUl1ki23XBm2OfzFRUWlg8sKCjowyZX0SgUCoVCoVAoFAqFQqFQKBQKhUKhUCgUCoVCoVAoFAqFQqFQKBQKhUKhUCgUCoVCoVAoFAqFQqFQKBQKhUKhUCgUCoVCoVAoFAqFQqFQKBQKhSIL8aUv/Q8HVFvABQMeRgAAAABJRU5ErkJggg==;fontSize=13;" vertex="1" parent="LISKMKXOkjGHTyVoo3IR-87">
          <mxGeometry x="54.71181818181819" y="39.743589743589745" width="66.89949958298583" height="66.89949958298583" as="geometry" />
        </mxCell>
        <mxCell id="LISKMKXOkjGHTyVoo3IR-94" value="" style="group" vertex="1" connectable="0" parent="1">
          <mxGeometry x="-294" y="40" width="148" height="90" as="geometry" />
        </mxCell>
        <mxCell id="LISKMKXOkjGHTyVoo3IR-51" value="" style="sketch=0;pointerEvents=1;shadow=0;dashed=0;html=1;strokeColor=none;fillColor=#505050;labelPosition=center;verticalLabelPosition=bottom;verticalAlign=top;outlineConnect=0;align=center;shape=mxgraph.office.devices.laptop;horizontal=1;" vertex="1" parent="LISKMKXOkjGHTyVoo3IR-94">
          <mxGeometry width="148" height="90" as="geometry" />
        </mxCell>
        <mxCell id="LISKMKXOkjGHTyVoo3IR-93" value="client" style="text;html=1;align=center;verticalAlign=middle;whiteSpace=wrap;rounded=0;fontSize=18;" vertex="1" parent="LISKMKXOkjGHTyVoo3IR-94">
          <mxGeometry x="44" y="20" width="60" height="30" as="geometry" />
        </mxCell>
        <mxCell id="LISKMKXOkjGHTyVoo3IR-65" value="&lt;div&gt;bridge&amp;nbsp;&lt;/div&gt;&lt;div&gt;network&lt;/div&gt;" style="html=1;verticalLabelPosition=bottom;align=center;labelBackgroundColor=#ffffff;verticalAlign=top;strokeWidth=2;shadow=0;dashed=0;shape=mxgraph.ios7.icons.cloud;" vertex="1" parent="1">
          <mxGeometry x="335" y="225" width="90" height="60" as="geometry" />
        </mxCell>
      </root>
    </mxGraphModel>
  </diagram>
</mxfile>
